<svg width="236" height="134" viewBox="0 0 236 134" fill="none" xmlns="http://www.w3.org/2000/svg">
<path d="M147.361 127.156L112.591 109.992C111.595 109.503 110.705 108.823 109.972 107.989C109.24 107.155 108.679 106.185 108.323 105.134C107.966 104.083 107.821 102.972 107.895 101.864C107.97 100.757 108.262 99.6753 108.755 98.6812L151.632 11.735C152.123 10.7418 152.805 9.85519 153.639 9.12572C154.472 8.39626 155.442 7.83828 156.492 7.48368C157.541 7.12908 158.651 6.9848 159.756 7.0591C160.861 7.1334 161.941 7.42482 162.934 7.9167L197.708 25.0747C199.714 26.0631 201.246 27.8068 201.969 29.9235C202.691 32.0403 202.544 34.357 201.56 36.3656L158.681 123.318C158.191 124.314 157.509 125.204 156.675 125.937C155.84 126.669 154.87 127.23 153.818 127.586C152.766 127.943 151.655 128.089 150.547 128.015C149.439 127.941 148.356 127.649 147.361 127.156Z" fill="#002159"/>
<path d="M196.182 28.0851L189.423 24.7878C189.202 24.6836 188.962 24.6241 188.718 24.6127C188.474 24.6013 188.23 24.6383 188 24.7215C187.77 24.8046 187.559 24.9324 187.378 25.0973C187.198 25.2623 187.052 25.4613 186.948 25.6829L186.351 26.9075C186.139 27.3532 185.761 27.6977 185.297 27.8663C184.833 28.0349 184.322 28.0141 183.873 27.8084L170.728 21.3166C170.509 21.2034 170.315 21.0479 170.157 20.8591C169.999 20.6703 169.88 20.4519 169.807 20.2167C169.734 19.9815 169.709 19.7342 169.733 19.489C169.756 19.2439 169.828 19.0059 169.945 18.7889L170.548 17.5527C170.663 17.3355 170.735 17.0976 170.758 16.8527C170.781 16.6078 170.755 16.3607 170.682 16.1257C170.61 15.8908 170.491 15.6725 170.333 15.4836C170.176 15.2947 169.982 15.1389 169.764 15.0251L167.384 13.864L161.469 10.9782C160.774 10.6343 160.018 10.4307 159.244 10.379C158.47 10.3273 157.693 10.4286 156.958 10.6771C156.224 10.9256 155.545 11.3163 154.961 11.8271C154.377 12.3378 153.9 12.9586 153.556 13.6539L111.7 98.5234C111.01 99.9303 110.906 101.554 111.412 103.037C111.918 104.52 112.992 105.742 114.399 106.434L149.1 123.564C150.505 124.257 152.127 124.365 153.612 123.863C155.096 123.362 156.321 122.293 157.019 120.891L198.869 36.0184C199.216 35.3214 199.421 34.5628 199.474 33.7862C199.526 33.0096 199.425 32.2302 199.175 31.493C198.925 30.7557 198.532 30.0751 198.018 29.4903C197.505 28.9054 196.881 28.4279 196.182 28.0851Z" fill="#E6F6FF"/>
<path d="M167.377 85.6745L132.961 68.8838L131.837 71.1886L166.253 87.9793L167.377 85.6745Z" fill="#002159"/>
<path d="M161.731 94.1407C161.692 94.2216 154.31 90.7062 145.253 86.2873C136.195 81.8684 128.875 78.2115 128.915 78.1307C128.954 78.0498 136.336 81.5652 145.399 85.9869C154.462 90.4087 161.77 94.0599 161.731 94.1407Z" fill="#002159"/>
<path d="M188.366 39.5465C188.324 39.6331 180.945 36.112 171.887 31.6931C162.83 27.2742 155.507 23.6231 155.55 23.5364C155.592 23.4498 162.971 26.971 172.034 31.3927C181.097 35.8144 188.414 39.4483 188.366 39.5465Z" fill="#002159"/>
<path d="M159.685 98.3341C159.646 98.415 152.264 94.8996 143.207 90.4807C134.149 86.0618 126.83 82.4049 126.869 82.324C126.908 82.2432 134.29 85.7586 143.353 90.1803C152.417 94.602 159.727 98.2475 159.685 98.3341Z" fill="#002159"/>
<path d="M157.648 102.51C157.608 102.591 150.227 99.0759 141.169 94.6569C132.112 90.238 124.792 86.5812 124.831 86.5003C124.871 86.4194 132.252 89.9348 141.316 94.3566C150.379 98.7783 157.681 102.441 157.648 102.51Z" fill="#002159"/>
<path d="M155.596 106.716C155.556 106.797 148.175 103.281 139.117 98.8623C130.06 94.4434 122.74 90.7865 122.78 90.7056C122.819 90.6247 130.201 94.1402 139.264 98.5619C148.327 102.984 155.638 106.629 155.596 106.716Z" fill="#002159"/>
<path d="M153.552 110.904C153.51 110.991 146.132 107.47 137.074 103.051C128.016 98.6321 120.694 94.981 120.736 94.8943C120.779 94.8077 128.157 98.3289 137.221 102.751C146.284 107.172 153.592 110.824 153.552 110.904Z" fill="#002159"/>
<path d="M151.701 115.886C151.661 115.967 144.28 112.452 135.222 108.033C126.165 103.614 118.845 99.9569 118.885 99.876C118.924 99.7952 126.306 103.311 135.369 107.732C144.432 112.154 151.743 115.799 151.701 115.886Z" fill="#002159"/>
<path d="M187.728 45.1352L153.225 28.3022L136.938 61.6845L171.441 78.5175L187.728 45.1352Z" fill="#7CC4FA"/>
<path d="M141.008 60.1307L158.937 47.6099L161.384 62.3983L168.973 58.8778L170.162 74.354L141.008 60.1307Z" fill="#2186EB"/>
<path d="M171.697 49.7012C171.458 50.1925 171.078 50.6016 170.605 50.877C170.133 51.1523 169.59 51.2814 169.044 51.248C168.499 51.2145 167.975 51.0201 167.54 50.6891C167.105 50.3582 166.778 49.9057 166.6 49.3889C166.422 48.872 166.402 48.314 166.541 47.7855C166.68 47.2569 166.973 46.7814 167.382 46.4193C167.792 46.0571 168.299 45.8245 168.841 45.7509C169.383 45.6772 169.934 45.7658 170.425 46.0055C171.083 46.3282 171.586 46.8982 171.824 47.5908C172.063 48.2834 172.017 49.0422 171.697 49.7012Z" fill="#2186EB"/>
<path d="M170.117 74.4461C170.117 74.4461 170.139 74.3999 170.184 74.3074C170.229 74.215 170.294 74.0821 170.373 73.9204C170.548 73.5623 170.79 73.0655 171.106 72.4185C171.751 71.0957 172.687 69.1779 173.833 66.7263C176.211 61.8509 179.558 54.8879 183.596 46.5383L183.667 46.7446L154.519 32.5241C154.462 32.539 154.977 32.3615 154.76 32.4412L151.096 39.9507C149.898 42.4057 148.726 44.8087 147.587 47.1424C145.305 51.8213 143.149 56.2403 141.165 60.307L141.091 60.0921L162.133 70.4507L168.065 73.3881L169.642 74.1575L170.047 74.3548L170.191 74.4252L170.064 74.3632L169.671 74.1716L168.123 73.4163L162.191 70.5651L140.984 60.3116L140.839 60.2411L140.91 60.0967C142.882 56.0532 145.05 51.6111 147.332 46.9321C148.46 44.6216 149.643 42.1954 150.841 39.7404L154.505 32.231C154.284 32.3021 154.802 32.1189 154.754 32.1452L183.902 46.3658L183.96 46.3939L183.841 46.6366C179.72 54.9955 176.296 61.9565 173.889 66.8465C172.711 69.261 171.781 71.1673 171.103 72.4674C170.793 73.1028 170.554 73.5938 170.385 73.9404C170.309 74.0964 170.249 74.2177 170.202 74.3159C170.18 74.3631 170.151 74.4069 170.117 74.4461Z" fill="#002159"/>
<path d="M40 36V120C40 123.314 42.6863 126 46 126H133C136.314 126 139 123.314 139 120V36C139 32.6863 136.314 30 133 30H114.421H46C42.6863 30 40 32.6863 40 36Z" fill="#E6F6FF" stroke="#0967D2"/>
<path d="M29 17V120C29 123.314 31.6863 126 35 126H122C125.314 126 128 123.314 128 120V17C128 13.6863 125.314 11 122 11H103.421H35C31.6863 11 29 13.6863 29 17Z" fill="#E6F6FF" stroke="#0967D2"/>
<path d="M17 9V118C17 122.418 20.5817 126 25 126H108C112.418 126 116 122.418 116 118V25.8635C116 23.5366 114.987 21.3251 113.225 19.8054L93.6723 2.94191C92.2197 1.68917 90.3655 1 88.4474 1H25C20.5817 1 17 4.58172 17 9Z" fill="#E6F6FF" stroke="#0967D2"/>
<rect x="55" y="23.2158" width="39" height="4.92126" rx="2.46063" fill="#0967D2"/>
<rect x="55" y="57.6646" width="39" height="4.92126" rx="2.46063" fill="#0967D2"/>
<rect x="55" y="93.0977" width="39" height="3.93701" rx="1.9685" fill="#0967D2"/>
<rect x="55" y="32.0742" width="28" height="3.93701" rx="1.9685" fill="#0967D2"/>
<rect x="55" y="66.5229" width="28" height="3.93701" rx="1.9685" fill="#0967D2"/>
<rect x="55" y="100.972" width="28" height="3.93701" rx="1.9685" fill="#0967D2"/>
<path d="M40.3492 40.6667C46.0474 40.6667 50.6667 36.0474 50.6667 30.3492C50.6667 24.651 46.0474 20.0317 40.3492 20.0317C34.651 20.0317 30.0317 24.651 30.0317 30.3492C30.0317 36.0474 34.651 40.6667 40.3492 40.6667Z" fill="#E6F6FF"/>
<path d="M40.3491 32.4128C43.7435 32.4128 46.5808 34.7549 47.3546 37.912C45.5181 39.6247 43.0522 40.6668 40.3491 40.6668C37.6459 40.6668 35.18 39.6247 33.3435 37.912C34.1173 34.7549 36.9546 32.4128 40.3491 32.4128Z" fill="#BAE3FF"/>
<path d="M40.3493 32.4127C42.6285 32.4127 44.4763 30.5649 44.4763 28.2857C44.4763 26.0064 42.6285 24.1587 40.3493 24.1587C38.07 24.1587 36.2223 26.0064 36.2223 28.2857C36.2223 30.5649 38.07 32.4127 40.3493 32.4127Z" fill="#E6F6FF"/>
<path d="M40.3492 41.6984C46.6067 41.6984 51.6984 36.6067 51.6984 30.3492C51.6984 24.0917 46.6067 19 40.3492 19C34.0917 19 29 24.0917 29 30.3492C29 36.6067 34.0917 41.6984 40.3492 41.6984ZM34.5384 37.5807C35.402 35.1241 37.7007 33.4444 40.3492 33.4444C42.9977 33.4444 45.2964 35.1241 46.16 37.5807C44.567 38.8632 42.5479 39.6349 40.3492 39.6349C38.1506 39.6349 36.1314 38.8632 34.5384 37.5807ZM37.254 28.2857C37.254 26.5792 38.6427 25.1905 40.3492 25.1905C42.0557 25.1905 43.4444 26.5792 43.4444 28.2857C43.4444 29.9922 42.0557 31.381 40.3492 31.381C38.6427 31.381 37.254 29.9922 37.254 28.2857ZM40.3492 21.0635C45.4687 21.0635 49.6349 25.2287 49.6349 30.3492C49.6349 32.4591 48.9189 34.4009 47.7293 35.9619C46.8812 34.2482 45.476 32.8976 43.7663 32.1207C44.826 31.1756 45.5079 29.8148 45.5079 28.2857C45.5079 25.4412 43.1937 23.127 40.3492 23.127C37.5047 23.127 35.1905 25.4412 35.1905 28.2857C35.1905 29.8148 35.8725 31.1756 36.9321 32.1207C35.2225 32.8976 33.8172 34.2482 32.9691 35.9619C31.7795 34.4009 31.0635 32.4591 31.0635 30.3492C31.0635 25.2287 35.2297 21.0635 40.3492 21.0635Z" fill="#2186EB"/>
<path d="M40.3492 75.7458C46.0474 75.7458 50.6667 71.1265 50.6667 65.4283C50.6667 59.7301 46.0474 55.1108 40.3492 55.1108C34.651 55.1108 30.0317 59.7301 30.0317 65.4283C30.0317 71.1265 34.651 75.7458 40.3492 75.7458Z" fill="#E6F6FF"/>
<path d="M40.3491 67.4919C43.7435 67.4919 46.5808 69.834 47.3546 72.9912C45.5181 74.7038 43.0522 75.7459 40.3491 75.7459C37.6459 75.7459 35.18 74.7038 33.3435 72.9912C34.1173 69.834 36.9546 67.4919 40.3491 67.4919Z" fill="#BAE3FF"/>
<path d="M40.3493 67.4918C42.6285 67.4918 44.4763 65.644 44.4763 63.3648C44.4763 61.0855 42.6285 59.2378 40.3493 59.2378C38.07 59.2378 36.2223 61.0855 36.2223 63.3648C36.2223 65.644 38.07 67.4918 40.3493 67.4918Z" fill="#E6F6FF"/>
<path d="M40.3492 76.7775C46.6067 76.7775 51.6984 71.6858 51.6984 65.4283C51.6984 59.1708 46.6067 54.0791 40.3492 54.0791C34.0917 54.0791 29 59.1708 29 65.4283C29 71.6858 34.0917 76.7775 40.3492 76.7775ZM34.5384 72.6598C35.402 70.2032 37.7007 68.5235 40.3492 68.5235C42.9977 68.5235 45.2964 70.2032 46.16 72.6598C44.567 73.9423 42.5479 74.714 40.3492 74.714C38.1506 74.714 36.1314 73.9423 34.5384 72.6598ZM37.254 63.3648C37.254 61.6583 38.6427 60.2696 40.3492 60.2696C42.0557 60.2696 43.4444 61.6583 43.4444 63.3648C43.4444 65.0713 42.0557 66.4601 40.3492 66.4601C38.6427 66.4601 37.254 65.0713 37.254 63.3648ZM40.3492 56.1426C45.4687 56.1426 49.6349 60.3078 49.6349 65.4283C49.6349 67.5382 48.9189 69.48 47.7293 71.041C46.8812 69.3273 45.476 67.9767 43.7663 67.1998C44.826 66.2547 45.5079 64.8939 45.5079 63.3648C45.5079 60.5203 43.1937 58.2061 40.3492 58.2061C37.5047 58.2061 35.1905 60.5203 35.1905 63.3648C35.1905 64.8939 35.8725 66.2547 36.9321 67.1998C35.2225 67.9767 33.8172 69.3273 32.9691 71.041C31.7795 69.48 31.0635 67.5382 31.0635 65.4283C31.0635 60.3078 35.2297 56.1426 40.3492 56.1426Z" fill="#2186EB"/>
<path d="M40.3492 110.825C46.0474 110.825 50.6667 106.206 50.6667 100.508C50.6667 94.8097 46.0474 90.1904 40.3492 90.1904C34.651 90.1904 30.0317 94.8097 30.0317 100.508C30.0317 106.206 34.651 110.825 40.3492 110.825Z" fill="#E6F6FF"/>
<path d="M40.3491 102.572C43.7435 102.572 46.5808 104.914 47.3546 108.071C45.5181 109.783 43.0522 110.826 40.3491 110.826C37.6459 110.826 35.18 109.783 33.3435 108.071C34.1173 104.914 36.9546 102.572 40.3491 102.572Z" fill="#BAE3FF"/>
<path d="M40.3493 102.571C42.6285 102.571 44.4763 100.724 44.4763 98.4444C44.4763 96.1651 42.6285 94.3174 40.3493 94.3174C38.07 94.3174 36.2223 96.1651 36.2223 98.4444C36.2223 100.724 38.07 102.571 40.3493 102.571Z" fill="#E6F6FF"/>
<path d="M40.3492 111.857C46.6067 111.857 51.6984 106.765 51.6984 100.508C51.6984 94.2504 46.6067 89.1587 40.3492 89.1587C34.0917 89.1587 29 94.2504 29 100.508C29 106.765 34.0917 111.857 40.3492 111.857ZM34.5384 107.739C35.402 105.283 37.7007 103.603 40.3492 103.603C42.9977 103.603 45.2964 105.283 46.16 107.739C44.567 109.022 42.5479 109.794 40.3492 109.794C38.1506 109.794 36.1314 109.022 34.5384 107.739ZM37.254 98.4444C37.254 96.7379 38.6427 95.3492 40.3492 95.3492C42.0557 95.3492 43.4444 96.7379 43.4444 98.4444C43.4444 100.151 42.0557 101.54 40.3492 101.54C38.6427 101.54 37.254 100.151 37.254 98.4444ZM40.3492 91.2222C45.4687 91.2222 49.6349 95.3873 49.6349 100.508C49.6349 102.618 48.9189 104.56 47.7293 106.121C46.8812 104.407 45.476 103.056 43.7663 102.279C44.826 101.334 45.5079 99.9735 45.5079 98.4444C45.5079 95.5999 43.1937 93.2857 40.3492 93.2857C37.5047 93.2857 35.1905 95.5999 35.1905 98.4444C35.1905 99.9735 35.8725 101.334 36.9321 102.279C35.2225 103.056 33.8172 104.407 32.9691 106.121C31.7795 104.56 31.0635 102.618 31.0635 100.508C31.0635 95.3873 35.2297 91.2222 40.3492 91.2222Z" fill="#2186EB"/>
<rect x="3" y="121" width="185" height="13" fill="white"/>
<line y1="120.5" x2="236" y2="120.5" stroke="#0967D2"/>
</svg>
