<svg width="219" height="130" viewBox="0 0 219 130" fill="none" xmlns="http://www.w3.org/2000/svg">
<path fill-rule="evenodd" clip-rule="evenodd" d="M219 129H0V130H219V129Z" fill="#0967D2"/>
<rect x="76.1376" y="46.6636" width="63.9732" height="82.8364" fill="#BAE3FF" stroke="#0967D2"/>
<rect x="86.6171" y="76.0063" width="7.38364" height="7.38364" fill="#2186EB" stroke="#0967D2"/>
<rect x="104.98" y="75.5063" width="8.38364" height="8.38364" fill="#2186EB"/>
<rect x="104.98" y="93.3215" width="8.38364" height="8.38364" fill="#2186EB"/>
<rect x="104.98" y="111.137" width="8.38364" height="8.38364" fill="#2186EB"/>
<rect x="123.844" y="75.5063" width="8.38364" height="8.38364" fill="#2186EB"/>
<path d="M165.254 45.4593C176.92 45.4593 186.377 36.0023 186.377 24.3365C186.377 12.6706 176.92 3.21362 165.254 3.21362C153.588 3.21362 144.131 12.6706 144.131 24.3365C144.131 36.0023 153.588 45.4593 165.254 45.4593Z" fill="#E6F6FF"/>
<path d="M165.254 28.561C172.204 28.561 178.012 33.3559 179.597 39.8195C175.837 43.3259 170.788 45.4593 165.254 45.4593C159.72 45.4593 154.672 43.3259 150.912 39.8195C152.496 33.3559 158.305 28.561 165.254 28.561Z" fill="#BAE3FF"/>
<path d="M165.254 28.5609C169.92 28.5609 173.703 24.7781 173.703 20.1117C173.703 15.4454 169.92 11.6626 165.254 11.6626C160.588 11.6626 156.805 15.4454 156.805 20.1117C156.805 24.7781 160.588 28.5609 165.254 28.5609Z" fill="#E6F6FF"/>
<path d="M165.254 47.5716C178.065 47.5716 188.489 37.1475 188.489 24.3365C188.489 11.5254 178.065 1.10132 165.254 1.10132C152.443 1.10132 142.019 11.5254 142.019 24.3365C142.019 37.1475 152.443 47.5716 165.254 47.5716ZM153.358 39.1415C155.126 34.1121 159.832 30.6733 165.254 30.6733C170.676 30.6733 175.382 34.1121 177.15 39.1415C173.889 41.767 169.755 43.347 165.254 43.347C160.753 43.347 156.619 41.767 153.358 39.1415ZM158.917 20.1119C158.917 16.6182 161.76 13.775 165.254 13.775C168.748 13.775 171.591 16.6182 171.591 20.1119C171.591 23.6056 168.748 26.4487 165.254 26.4487C161.76 26.4487 158.917 23.6056 158.917 20.1119ZM165.254 5.32589C175.735 5.32589 184.265 13.8532 184.265 24.3365C184.265 28.6561 182.799 32.6314 180.363 35.8273C178.627 32.3188 175.75 29.5538 172.25 27.9632C174.419 26.0284 175.815 23.2423 175.815 20.1119C175.815 14.2883 171.078 9.55046 165.254 9.55046C159.43 9.55046 154.693 14.2883 154.693 20.1119C154.693 23.2423 156.089 26.0284 158.258 27.9632C154.758 29.5538 151.881 32.3188 150.145 35.8273C147.709 32.6314 146.243 28.6561 146.243 24.3365C146.243 13.8532 154.773 5.32589 165.254 5.32589Z" fill="#2186EB"/>
<path d="M53.8106 44.4115C65.4764 44.4115 74.9334 34.9545 74.9334 23.2886C74.9334 11.6228 65.4764 2.16577 53.8106 2.16577C42.1448 2.16577 32.6877 11.6228 32.6877 23.2886C32.6877 34.9545 42.1448 44.4115 53.8106 44.4115Z" fill="#E6F6FF"/>
<path d="M53.8107 27.5132C60.7601 27.5132 66.5689 32.3081 68.1531 38.7717C64.3932 42.2781 59.3449 44.4115 53.8107 44.4115C48.2765 44.4115 43.2281 42.2781 39.4683 38.7717C41.0525 32.3081 46.8613 27.5132 53.8107 27.5132Z" fill="#BAE3FF"/>
<path d="M53.8106 27.5133C58.4769 27.5133 62.2597 23.7305 62.2597 19.0641C62.2597 14.3978 58.4769 10.615 53.8106 10.615C49.1443 10.615 45.3615 14.3978 45.3615 19.0641C45.3615 23.7305 49.1443 27.5133 53.8106 27.5133Z" fill="#E6F6FF"/>
<path d="M53.8106 46.5237C66.6216 46.5237 77.0457 36.0996 77.0457 23.2886C77.0457 10.4776 66.6216 0.0534668 53.8106 0.0534668C40.9996 0.0534668 30.5754 10.4776 30.5754 23.2886C30.5754 36.0996 40.9996 46.5237 53.8106 46.5237ZM41.9142 38.0936C43.6822 33.0643 48.3883 29.6255 53.8106 29.6255C59.2328 29.6255 63.939 33.0643 65.707 38.0936C62.4456 40.7192 58.3119 42.2992 53.8106 42.2992C49.3093 42.2992 45.1756 40.7192 41.9142 38.0936ZM47.4737 19.064C47.4737 15.5703 50.3169 12.7272 53.8106 12.7272C57.3043 12.7272 60.1474 15.5703 60.1474 19.064C60.1474 22.5578 57.3043 25.4009 53.8106 25.4009C50.3169 25.4009 47.4737 22.5578 47.4737 19.064ZM53.8106 4.27804C64.2917 4.27804 72.8211 12.8053 72.8211 23.2886C72.8211 27.6082 71.3552 31.5835 68.9198 34.7794C67.1835 31.2709 64.3065 28.5059 60.8065 26.9154C62.9758 24.9805 64.372 22.1944 64.372 19.064C64.372 13.2405 59.6341 8.50261 53.8106 8.50261C47.987 8.50261 43.2492 13.2405 43.2492 19.064C43.2492 22.1944 44.6454 24.9805 46.8147 26.9154C43.3146 28.5059 40.4377 31.2709 38.7014 34.7794C36.2659 31.5835 34.8 27.6082 34.8 23.2886C34.8 12.8053 43.3294 4.27804 53.8106 4.27804Z" fill="#2186EB"/>
<path d="M176.958 58.582L183.914 65.5377H163.666V69.7623H183.914L176.958 76.7181L179.945 79.7048L192 67.65L179.945 55.5952L176.958 58.582Z" fill="#2186EB"/>
<path d="M33.0416 58.582L26.0859 65.5377H46.3342V69.7623H26.0859L33.0416 76.7181L30.0548 79.7048L18 67.65L30.0548 55.5952L33.0416 58.582Z" fill="#2186EB"/>
<path d="M117.72 22.4308L110.764 15.475L110.764 35.7234L106.539 35.7234L106.539 15.475L99.5834 22.4308L96.5967 19.444L108.651 7.38919L120.706 19.444L117.72 22.4308Z" fill="#2186EB"/>
<rect x="47.8428" y="76.0063" width="46.158" height="53.4937" fill="#E6F6FF" stroke="#0967D2"/>
<rect x="124.344" y="90.6777" width="38.8223" height="38.8223" fill="#E6F6FF" stroke="#0967D2"/>
<rect x="56.7743" y="85.9858" width="8.38364" height="8.38364" fill="#2186EB"/>
<rect x="130.131" y="100.657" width="8.38364" height="8.38364" fill="#2186EB"/>
<rect x="86.1171" y="57.6909" width="8.38364" height="8.38364" fill="#2186EB"/>
<rect x="56.7743" y="100.657" width="8.38364" height="8.38364" fill="#2186EB"/>
<rect x="130.131" y="115.329" width="8.38364" height="8.38364" fill="#2186EB"/>
<rect x="56.7743" y="115.329" width="8.38364" height="8.38364" fill="#2186EB"/>
<rect x="75.6376" y="85.9858" width="8.38364" height="8.38364" fill="#2186EB"/>
<rect x="148.994" y="100.657" width="8.38364" height="8.38364" fill="#2186EB"/>
<rect x="104.98" y="57.6909" width="8.38364" height="8.38364" fill="#2186EB"/>
<rect x="123.844" y="57.6909" width="8.38364" height="8.38364" fill="#2186EB"/>
<rect x="75.6376" y="100.657" width="8.38364" height="8.38364" fill="#2186EB"/>
<rect x="148.994" y="115.329" width="8.38364" height="8.38364" fill="#2186EB"/>
<rect x="75.6376" y="115.329" width="8.38364" height="8.38364" fill="#2186EB"/>
</svg>
